<?xml version="1.0" encoding="utf-8"?>
<!-- Generator: Adobe Illustrator 21.0.2, SVG Export Plug-In . SVG Version: 6.00 Build 0)  -->
<svg version="1.1" id="Layer_1" xmlns="http://www.w3.org/2000/svg" xmlns:xlink="http://www.w3.org/1999/xlink" x="0px" y="0px"
	 viewBox="0 0 512 512" style="enable-background:new 0 0 512 512;" xml:space="preserve">
<style type="text/css">
	.st0{fill:#3A88D6;}
	.st1{fill:#F2F2F2;}
	.st2{fill:#FFFFFF;}
	.st3{fill:#F7B239;}
	.st4{fill:#F95428;}
	.st5{fill:#333333;}
</style>
<!--   kick drum  blue border     -->
<path class="st0" d="M343.6,262.3c24,24.8,38.7,58.5,38.7,95.7c0,76.1-61.7,137.7-137.7,137.7S106.8,434.1,106.8,358
	c0-37.2,14.7-70.9,38.7-95.7c13.9-14.4,30.9-25.7,49.9-33c15.3-5.9,31.9-9.1,49.2-9.1s33.9,3.2,49.2,9.1
	C312.7,236.6,329.7,248,343.6,262.3z M351.3,358c0-59-47.8-106.8-106.8-106.8S137.8,299.1,137.8,358c0,59,47.8,106.8,106.8,106.8
	S351.3,417,351.3,358z"/>

<!--    kick drum reflection white color     -->
<path class="st1" d="M244.5,251.3c59,0,106.8,47.8,106.8,106.8c0,59-47.8,106.8-106.8,106.8S137.8,417,137.8,358
	C137.8,299.1,185.6,251.3,244.5,251.3z"/>
<path class="st2" d="M182,410.6c-2.7,0-5.4-1.3-7-3.7c-10.1-14.4-15.5-31.3-15.5-48.9c0-46.9,38.2-85.1,85.1-85.1
	c11.2,0,22.1,2.2,32.4,6.4c4.4,1.8,6.5,6.8,4.7,11.2s-6.8,6.5-11.2,4.7c-8.2-3.4-16.9-5.1-25.9-5.1c-37.4,0-67.9,30.4-67.9,67.9
	c0,14.1,4.3,27.5,12.3,39c2.7,3.9,1.8,9.3-2.1,12C185.4,410.1,183.7,410.6,182,410.6z"/>

<!--   snare drum fill     -->
<path class="st3" d="M321,166.7v18.9l-32.9,4.7l5.6,38.9c-15.3-5.9-31.9-9.1-49.2-9.1s-33.9,3.2-49.2,9.1l5.6-38.9l-32.9-4.7v-18.9
	H321z"/>

<!--   tom drums fill     -->
<g>
	<polygon class="st4" points="73.6,172.1 73.6,252 43.3,247.6 54.5,169.4 	"/>
	<path class="st4" d="M200.9,190.4l-5.6,38.9c-19,7.3-36,18.6-49.9,33L73.6,252v-79.9l94.4,13.6L200.9,190.4z"/>
	<polygon class="st4" points="434.5,169.4 445.8,247.6 415.4,252 415.4,172.1 	"/>
	<path class="st4" d="M415.4,172.1V252l-71.8,10.3c-13.9-14.4-30.9-25.7-49.9-33l-5.6-38.9l32.9-4.7L415.4,172.1z"/>
</g>
<g>
	<!--   kick drum inner border     -->
	<path class="st5" d="M244.5,242.7c-63.6,0-115.4,51.7-115.4,115.4s51.7,115.4,115.4,115.4S359.9,421.6,359.9,358
		S308.1,242.7,244.5,242.7z M244.5,456.2c-54.1,0-98.2-44-98.2-98.2s44-98.1,98.1-98.1c54.1,0,98.2,44,98.2,98.1
		C342.7,412.1,298.6,456.2,244.5,456.2z"/>
	<!--   left cymbal top     -->
	<path class="st5" d="M82.2,45.2v-29c0-4.8-3.9-8.6-8.6-8.6S65,11.5,65,16.3v29"/>
	
	<path class="st5" d="M424,68.9V52c0-4.8-3.9-8.6-8.6-8.6s-8.6,3.9-8.6,8.6v16.9v17.2v78.6l-77.2,11.1v-9c0-4.8-3.9-8.6-8.6-8.6H168
		c-4.8,0-8.6,3.9-8.6,8.6v9l-77.2-11.1V77.4H65v32.3H52c-4.8,0-8.6,3.9-8.6,8.6s3.9,8.6,8.6,8.6H65v35.3l-9.3-1.3
		c-2.3-0.3-4.6,0.3-6.4,1.6c-1.8,1.4-3,3.4-3.4,5.7l-11.2,78.3c-0.7,4.7,2.6,9.1,7.3,9.7l23,3.3v184l-46.2,46.2
		c-3.4,3.4-3.4,8.8,0,12.2c1.7,1.7,3.9,2.5,6.1,2.5s4.4-0.8,6.1-2.5l34-34v27.9c0,4.8,3.9,8.6,8.6,8.6s8.6-3.9,8.6-8.6v-27.9l34,34
		c3.4,3.4,8.8,3.4,12.2,0c3.4-3.4,3.4-8.8,0-12.2l-46.2-46.2V261.9l46.5,6.7c-19.2,24.7-30.6,55.8-30.6,89.4
		c0,45,20.5,85.4,52.6,112.3l-8.2,22.5c-1.6,4.5,0.7,9.4,5.1,11c1,0.4,2,0.5,2.9,0.5c3.5,0,6.8-2.2,8.1-5.7l6.5-17.8
		c22.9,14.8,50.1,23.4,79.3,23.4s56.4-8.6,79.3-23.4l6.5,17.8c1.3,3.5,4.6,5.7,8.1,5.7c1,0,2-0.2,2.9-0.5c4.5-1.6,6.8-6.6,5.1-11
		l-8.2-22.5c32.1-26.9,52.6-67.2,52.6-112.3c0-33.6-11.4-64.7-30.6-89.4l46.5-6.7v181.6l-46.2,46.2c-3.4,3.4-3.4,8.8,0,12.2
		c3.4,3.4,8.8,3.4,12.2,0l34-34v27.9c0,4.8,3.9,8.6,8.6,8.6s8.6-3.9,8.6-8.6v-27.9l34,34c1.7,1.7,3.9,2.5,6.1,2.5
		c2.2,0,4.4-0.8,6.1-2.5c3.4-3.4,3.4-8.8,0-12.2L424,443.5v-184l23-3.3c4.7-0.7,8-5,7.3-9.7L443,168.1c-0.3-2.3-1.5-4.3-3.4-5.7
		c-1.8-1.4-4.1-1.9-6.4-1.6l-9.3,1.3v-35.3h13.1c4.8,0,8.6-3.9,8.6-8.6s-3.9-8.6-8.6-8.6H424V86.1L424,68.9L424,68.9z M176.6,175.3
		h135.8v2.9l-25.5,3.7c-2.3,0.3-4.3,1.5-5.7,3.4s-2,4.1-1.6,6.4l3.6,25.3c-12.3-3.4-25.3-5.2-38.7-5.2c-13.4,0-26.4,1.8-38.7,5.2
		l3.6-25.3c0.3-2.3-0.3-4.6-1.6-6.4s-3.4-3-5.7-3.4l-25.5-3.7L176.6,175.3L176.6,175.3z M53,240.3l8.8-61.2l3.2,0.5v62.5L53,240.3z
		 M82.2,182l109,15.7l-3.7,25.5c-16.8,7.2-32.1,17.4-45,30l-60.3-8.7L82.2,182L82.2,182z M244.5,487.1
		c-71.2,0-129.1-57.9-129.1-129.1s57.9-129.1,129.1-129.1S373.6,286.8,373.6,358S315.7,487.1,244.5,487.1z M346.5,253.2
		c-12.9-12.6-28.2-22.8-45-30l-3.7-25.5L406.8,182v62.5L346.5,253.2z M427.2,179.1l8.8,61.2l-12,1.7v-62.5L427.2,179.1z"/>
</g>
<g>
	<path class="st3" d="M138.7,55.5H8.6c-4.8,0-8.6-3.9-8.6-8.6s3.9-8.6,8.6-8.6h130.1c4.8,0,8.6,3.9,8.6,8.6S143.4,55.5,138.7,55.5z"
		/>
	<path class="st3" d="M138.7,86.1H8.6c-4.8,0-8.6-3.9-8.6-8.6s3.9-8.6,8.6-8.6h130.1c4.8,0,8.6,3.9,8.6,8.6S143.4,86.1,138.7,86.1z"
		/>
	<path class="st3" d="M503.4,86.1h-176c-4.8,0-8.6-3.9-8.6-8.6s3.9-8.6,8.6-8.6h176c4.8,0,8.6,3.9,8.6,8.6
		C512,82.2,508.1,86.1,503.4,86.1z"/>
</g>
<g>
	<path class="st2" d="M166.5,219c-0.5,0-0.9,0-1.4-0.1l-64.2-10.3c-4.7-0.8-7.9-5.2-7.1-9.9s5.2-7.9,9.9-7.1l64.2,10.3
		c4.7,0.8,7.9,5.2,7.1,9.9C174.3,216,170.7,219,166.5,219z"/>
	<path class="st2" d="M320.2,219c-2.3,0-4.5-0.9-6.1-2.5c-0.4-0.4-0.8-0.8-1.1-1.3c-0.3-0.5-0.6-1-0.8-1.5c-0.2-0.5-0.4-1.1-0.5-1.6
		c-0.1-0.6-0.2-1.1-0.2-1.7s0.1-1.1,0.2-1.7c0.1-0.5,0.3-1.1,0.5-1.6c0.2-0.5,0.5-1,0.8-1.5c0.3-0.5,0.7-0.9,1.1-1.3
		c1.6-1.6,3.8-2.5,6.1-2.5s4.5,0.9,6.1,2.5c0.4,0.4,0.8,0.8,1.1,1.3c0.3,0.5,0.6,1,0.8,1.5c0.2,0.5,0.4,1.1,0.5,1.6
		c0.1,0.6,0.2,1.1,0.2,1.7s-0.1,1.1-0.2,1.7c-0.1,0.5-0.3,1.1-0.5,1.6c-0.2,0.5-0.5,1-0.8,1.5c-0.3,0.5-0.7,0.9-1.1,1.3
		C324.7,218.1,322.5,219,320.2,219z"/>
	<path class="st2" d="M347.4,214.7c-4.1,0-7.8-3-8.5-7.2c-0.8-4.7,2.4-9.1,7.1-9.9l37-6c4.7-0.8,9.1,2.4,9.9,7.1
		c0.8,4.7-2.4,9.1-7.1,9.9l-37,6C348.3,214.6,347.9,214.7,347.4,214.7z"/>
</g>
</svg>
